Coordinates
version=1
nRows=4
nColumns=63
inDegrees=yes

Units are S.I. units (second, meters, Newtons, ...)
If the header above contains a line with 'inDegrees', this indicates whether rotational values are in degrees (yes) or radians (no).

endheader
time	pelvis_tilt	pelvis_list	pelvis_rotation	pelvis_tx	pelvis_ty	pelvis_tz	hip_flexion_r	hip_adduction_r	hip_rotation_r	knee_angle_r	knee_angle_r_beta	ankle_angle_r	subtalar_angle_r	mtp_angle_r	hip_flexion_l	hip_adduction_l	hip_rotation_l	knee_angle_l	knee_angle_l_beta	ankle_angle_l	subtalar_angle_l	mtp_angle_l	L5_S1_Flex_Ext	L5_S1_Lat_Bending	L5_S1_axial_rotation	L4_L5_Flex_Ext	L4_L5_Lat_Bending	L4_L5_axial_rotation	L3_L4_Flex_Ext	L3_L4_Lat_Bending	L3_L4_axial_rotation	L2_L3_Flex_Ext	L2_L3_Lat_Bending	L2_L3_axial_rotation	L1_L2_Flex_Ext	L1_L2_Lat_Bending	L1_L2_axial_rotation	L1_T12_Flex_Ext	L1_T12_Lat_Bending	L1_T12_axial_rotation	Abs_r3	Abs_r2	Abs_r1	Abs_t1	Abs_t2	neck_flexion	neck_bending	neck_rotation	arm_flex_r	arm_add_r	arm_rot_r	elbow_flex_r	pro_sup_r	wrist_flex_r	wrist_dev_r	arm_flex_l	arm_add_l	arm_rot_l	elbow_flex_l	pro_sup_l	wrist_flex_l	wrist_dev_l
      0.43333333	    -22.18239612	      5.55503499	    -98.97758451	     -0.06369595	      0.95866348	     -1.10567846	     22.22069205	     -5.26066586	    -24.89308546	     55.32801410	      0.96565601	     10.58372763	     14.23686006	      0.00000000	     31.11420331	    -19.76373535	     11.81491317	     54.80969016	      0.95660956	     16.23776184	    -19.59191628	      0.00000000	     -0.00826931	     -0.92370299	      0.66229327	     -0.01535693	     -1.22852498	      0.70368660	     -0.01358565	     -2.24589145	      0.70368660	     -0.00945099	     -2.24589145	      0.57950661	     -0.00767888	     -1.88361514	      0.53811328	     -0.00472508	     -1.43081593	      0.49671995	     -0.05906685	    -10.44911296	      3.68347646	      0.00000000	      0.00000000	    -15.42247408	     13.58727002	     -1.87855414	    -17.85187443	    -37.06585344	    -61.91179824	     90.71312027	     89.99559364	      0.00000000	      0.00000000	     -4.49565486	    -39.77211172	      9.38095342	     25.62308697	     89.99559364	      0.00000000	      0.00000000
      0.45000000	    -22.17269449	      5.49656694	   -100.67679459	     -0.06756130	      0.95880750	     -1.09751276	     23.28792191	     -6.45146794	    -22.44128030	     53.01382592	      0.92526581	      8.73771552	     14.71487089	      0.00000000	     30.00277961	    -20.69169774	     10.26277821	     55.29104189	      0.96501073	     16.30348514	    -19.55234731	      0.00000000	     -0.01051678	     -1.05196239	      1.22653511	     -0.01953071	     -1.39910998	      1.30319356	     -0.01727802	     -2.55774135	      1.30319356	     -0.01201963	     -2.55774135	      1.07321822	     -0.00976588	     -2.14516170	      0.99655978	     -0.00600929	     -1.62948974	      0.91990134	     -0.07512031	    -11.90000893	      6.82162034	      0.00000000	      0.00000000	    -14.20722761	     13.85417738	     -6.25379417	    -21.39372010	    -36.43638404	    -65.70871343	     90.70392385	     89.99559364	      0.00000000	      0.00000000	     -3.18684298	    -39.60340922	      4.44837876	     26.64408881	     89.99559364	      0.00000000	      0.00000000
      0.46666667	    -22.63331050	      5.48013693	   -100.29262673	     -0.06921975	      0.95808127	     -1.08826140	     23.51914441	     -7.92604486	    -22.13681909	     50.38045441	      0.87930481	      7.31048515	     15.69809554	      0.00000000	     29.52165542	    -21.01370032	     10.82887050	     55.40668806	      0.96702913	     16.69112140	    -19.51293380	      0.00000000	     -0.01105274	     -1.11978614	      1.43654852	     -0.02052604	     -1.48931556	      1.52633280	     -0.01815854	     -2.72264801	      1.52633280	     -0.01263217	     -2.72264801	      1.25697995	     -0.01026357	     -2.28346789	      1.16719567	     -0.00631553	     -1.73454872	      1.07741139	     -0.07894858	    -12.66724472	      7.98965189	      0.00000000	      0.00000000	    -14.29961098	     13.60965787	     -6.71649262	    -24.99303436	    -35.89392809	    -69.26337475	     90.68600142	     89.99559364	      0.00000000	      0.00000000	     -1.66797240	    -39.78100883	      2.97077339	     27.52732908	     89.99559364	      0.00000000	      0.00000000
      0.48333333	    -23.64865996	      5.50638789	    -98.19418168	     -0.06890059	      0.95679061	     -1.07836190	     22.96308858	     -9.35030920	    -23.51415766	     47.58937313	      0.83059125	      6.29826532	     16.57179202	      0.00000000	     29.71077144	    -21.08264313	     13.16457818	     55.33704892	      0.96581370	     17.23373705	    -19.48849625	      0.00000000	     -0.01310907	     -1.12632025	      1.30768263	     -0.02434485	     -1.49800593	      1.38941279	     -0.02153688	     -2.73853505	      1.38941279	     -0.01498235	     -2.73853505	      1.14422230	     -0.01217308	     -2.29679225	      1.06249213	     -0.00749052	     -1.74467007	      0.98076197	     -0.09363675	    -12.74115992	      7.27293846	      0.00000000	      0.00000000	    -14.70309810	     12.55538279	    -10.47313669	    -28.12505090	    -35.64754838	    -72.05074705	     90.12113389	     89.99559364	      0.00000000	      0.00000000	     -0.78939683	    -39.10841865	     -2.60576600	     28.58242623	     89.99559364	      0.00000000	      0.00000000
